<svg width="27" height="27" viewBox="0 0 27 27" fill="none" xmlns="http://www.w3.org/2000/svg">
<path d="M13.145 6.40101C11.8126 6.40101 10.51 6.79612 9.40213 7.5364C8.29424 8.27667 7.43074 9.32884 6.92083 10.5599C6.41092 11.7909 6.27751 13.1455 6.53746 14.4523C6.7974 15.7592 7.43904 16.9596 8.38123 17.9018C9.32341 18.844 10.5238 19.4856 11.8307 19.7456C13.1375 20.0055 14.4921 19.8721 15.7231 19.3622C16.9542 18.8523 18.0063 17.9888 18.7466 16.8809C19.4869 15.773 19.882 14.4705 19.882 13.138C19.8833 12.2529 19.71 11.3763 19.3719 10.5583C19.0338 9.74035 18.5376 8.99714 17.9117 8.37129C17.2859 7.74544 16.5427 7.24925 15.7247 6.91115C14.9067 6.57305 14.0301 6.39969 13.145 6.40101ZM13.145 17.518C12.2787 17.518 11.4319 17.2611 10.7116 16.7798C9.99132 16.2986 9.42992 15.6145 9.09841 14.8142C8.7669 14.0138 8.68016 13.1331 8.84917 12.2835C9.01817 11.4339 9.43532 10.6534 10.0479 10.0409C10.6604 9.42832 11.4409 9.01117 12.2905 8.84217C13.1401 8.67316 14.0208 8.7599 14.8212 9.09141C15.6215 9.42292 16.3056 9.98432 16.7868 10.7046C17.2681 11.4249 17.525 12.2717 17.525 13.138C17.5229 14.299 17.0608 15.4118 16.2398 16.2328C15.4188 17.0538 14.306 17.5159 13.145 17.518ZM21.729 6.12601C21.729 6.43672 21.6369 6.74046 21.4642 6.99881C21.2916 7.25716 21.0463 7.45852 20.7592 7.57742C20.4721 7.69633 20.1563 7.72744 19.8515 7.66682C19.5468 7.6062 19.2668 7.45658 19.0471 7.23687C18.8274 7.01716 18.6778 6.73724 18.6172 6.43249C18.5566 6.12775 18.5877 5.81187 18.7066 5.52481C18.8255 5.23775 19.0269 4.99239 19.2852 4.81977C19.5436 4.64714 19.8473 4.55501 20.158 4.55501C20.3644 4.55461 20.5689 4.59498 20.7597 4.67379C20.9505 4.7526 21.1238 4.8683 21.2698 5.01426C21.4157 5.16022 21.5314 5.33356 21.6102 5.52434C21.689 5.71512 21.7294 5.91959 21.729 6.12601ZM26.191 7.72101C26.2342 5.67803 25.4715 3.70015 24.068 2.21501C22.5799 0.816167 20.604 0.0543075 18.562 0.0920059C16.392 -0.0309941 9.89001 -0.0309941 7.72001 0.0920059C5.67897 0.0517783 3.70318 0.811588 2.21501 2.20901C0.813593 3.6955 0.051312 5.67247 0.0920059 7.71501C-0.0309941 9.88501 -0.0309941 16.387 0.0920059 18.557C0.049097 20.5996 0.811709 22.5771 2.21501 24.062C3.70369 25.4599 5.67919 26.2216 7.72101 26.185C9.89101 26.308 16.393 26.308 18.563 26.185C20.6056 26.2279 22.5831 25.4653 24.068 24.062C25.4668 22.5739 26.2287 20.598 26.191 18.556C26.314 16.386 26.314 9.89101 26.191 7.72101ZM23.391 20.885C23.168 21.4509 22.831 21.9648 22.4009 22.3949C21.9708 22.825 21.4569 23.162 20.891 23.385C19.161 24.071 15.057 23.913 13.145 23.913C11.233 23.913 7.12301 24.065 5.39901 23.385C4.83314 23.162 4.31919 22.825 3.88912 22.3949C3.45904 21.9648 3.12202 21.4509 2.89901 20.885C2.21301 19.155 2.37101 15.051 2.37101 13.139C2.37101 11.227 2.22101 7.11701 2.90501 5.39301C3.12802 4.82714 3.46504 4.3132 3.89512 3.88312C4.32519 3.45304 4.83914 3.11602 5.40501 2.89301C7.13501 2.20701 11.239 2.36501 13.151 2.36501C15.063 2.36501 19.173 2.21301 20.897 2.89301C21.4629 3.11602 21.9768 3.45304 22.4069 3.88312C22.837 4.3132 23.174 4.82714 23.397 5.39301C24.083 7.12301 23.925 11.227 23.925 13.139C23.925 15.051 24.074 19.162 23.388 20.884L23.391 20.885Z" fill="white"/>
</svg>
