<svg width="129" height="36" viewBox="0 0 129 36" fill="none" xmlns="http://www.w3.org/2000/svg">
<g clip-path="url(#clip0_2_167)">
<path d="M17.5097 35.0195C15.1684 35.0242 12.8502 34.5563 10.694 33.6437C8.61335 32.7649 6.72291 31.4904 5.12786 29.8912C3.52888 28.2962 2.25461 26.4061 1.37561 24.3256C0.463052 22.1693 -0.0048051 19.851 3.72071e-05 17.5095C-0.00468669 15.1682 0.463167 12.85 1.37561 10.6937C2.25469 8.61325 3.52905 6.72314 5.12814 5.12815C6.72317 3.52886 8.61361 2.25432 10.6943 1.37543C12.8505 0.46307 15.1685 -0.00487517 17.5097 -0.000456394C19.8511 -0.00493793 22.1692 0.463009 24.3255 1.37543C26.4061 2.25417 28.2964 3.52863 29.8914 5.12787C31.4905 6.72283 32.7648 8.61296 33.6439 10.6934C34.5564 12.8498 35.0242 15.1681 35.0195 17.5095C35.024 19.8507 34.5562 22.1687 33.6439 24.3248C32.7648 26.4053 31.4903 28.2954 29.8911 29.8904C28.296 31.4894 26.4057 32.7639 24.3252 33.6428C22.1691 34.5555 19.8511 35.0237 17.5097 35.0195ZM17.9685 15.7368C17.8211 15.7364 17.6741 15.75 17.5292 15.7774C17.4398 15.7935 17.3517 15.8169 17.2661 15.8476C17.0748 15.9273 16.8898 16.0217 16.713 16.1298L16.7076 16.1328C16.5235 16.232 16.3491 16.3482 16.1867 16.48C16.1177 16.539 16.0536 16.6034 15.9951 16.6728C15.6297 17.1383 15.3949 17.6928 15.3145 18.2792C15.2552 18.6013 15.1988 18.9115 15.1441 19.2113L15.1212 19.3369C14.9962 20.0232 14.8896 20.6014 14.7634 21.2717C14.7404 21.3574 14.717 21.4442 14.6933 21.5322C14.3257 22.8829 13.9098 24.4143 14.864 25.6174C15.3418 26.105 15.991 26.3868 16.6734 26.4032C16.9176 26.4024 17.16 26.3641 17.3925 26.2897C17.4693 26.2621 17.5433 26.2269 17.6132 26.1847C17.974 25.9543 18.3217 25.704 18.655 25.4353C19.4116 24.8323 20.207 24.28 21.0364 23.7818L21.1611 23.7106C22.0142 23.237 22.8974 22.8199 23.8051 22.4621H23.8082C24.2803 22.297 24.7321 22.0784 25.1544 21.8106C25.4867 21.491 25.7258 21.0871 25.846 20.642C25.9662 20.1969 25.9632 19.7274 25.837 19.2839C25.2746 17.8458 23.7405 17.4406 22.3872 17.0843L22.1268 17.0155C21.7769 16.8913 21.4472 16.7735 21.0834 16.643C20.508 16.4369 19.9133 16.2239 19.2601 15.9964C18.8468 15.8395 18.4101 15.7535 17.9682 15.7421L17.9685 15.7368ZM11.1443 16.4352C10.7954 16.4357 10.4529 16.5276 10.1508 16.702C9.92433 16.8324 9.72585 17.0062 9.5669 17.2136C9.40794 17.421 9.2916 17.6578 9.22463 17.9103C9.15635 18.1626 9.13873 18.426 9.17291 18.685C9.20709 18.9441 9.29224 19.1938 9.4236 19.4198C9.59893 19.7221 9.85069 19.9731 10.1534 20.1478C10.456 20.3226 10.7993 20.415 11.1488 20.4156C11.4973 20.4145 11.8393 20.3223 12.1411 20.1483C12.5978 19.884 12.931 19.4493 13.0676 18.9397C13.2042 18.43 13.133 17.887 12.8698 17.4297C12.6945 17.1276 12.4431 16.8767 12.1406 16.7022C11.838 16.5276 11.495 16.4355 11.1457 16.435L11.1443 16.4352ZM12.6533 11.8873C12.3045 11.8877 11.9621 11.9797 11.6601 12.1541C11.4335 12.2842 11.2349 12.4579 11.0759 12.6653C10.9169 12.8726 10.8007 13.1095 10.7339 13.3621C10.6656 13.6144 10.648 13.8776 10.6822 14.1367C10.7163 14.3958 10.8018 14.6455 10.9331 14.8714C11.1084 15.1737 11.3599 15.4248 11.6626 15.5995C11.9653 15.7741 12.3086 15.8664 12.6581 15.8668C13.0068 15.8667 13.3493 15.7747 13.6512 15.6002C14.1078 15.3359 14.441 14.9013 14.5774 14.3918C14.7139 13.8822 14.6424 13.3394 14.379 12.8823C14.2033 12.5789 13.9509 12.327 13.647 12.1521C13.3431 11.9773 12.9985 11.8855 12.6479 11.886L12.6533 11.8873ZM21.483 10.4659C21.134 10.4664 20.7914 10.5584 20.4893 10.733C20.2626 10.8629 20.0641 11.0366 19.9051 11.2439C19.7461 11.4512 19.6298 11.6879 19.5631 11.9404C19.4948 12.1928 19.4772 12.4563 19.5114 12.7154C19.5455 12.9746 19.631 13.2244 19.7623 13.4504C19.9377 13.7528 20.1894 14.0038 20.4921 14.1784C20.7948 14.353 21.138 14.4451 21.4875 14.4455C21.8359 14.4451 22.1779 14.3532 22.4796 14.1789C22.9363 13.9147 23.2694 13.48 23.406 12.9704C23.5427 12.4607 23.4719 11.9177 23.2088 11.4604C23.0327 11.1568 22.7797 10.9049 22.4753 10.7302C22.171 10.5554 21.826 10.464 21.4751 10.4651L21.483 10.4659ZM16.7893 9.49958C16.4405 9.49993 16.0981 9.59202 15.7961 9.76667C15.3397 10.0309 15.0065 10.4655 14.87 10.9749C14.7334 11.4844 14.8044 12.0272 15.0675 12.4844C15.2424 12.7863 15.4935 13.037 15.7956 13.2116C16.0977 13.3862 16.4404 13.4786 16.7893 13.4794H16.7924C17.1412 13.479 17.4836 13.3872 17.7859 13.2133C18.0124 13.0831 18.2108 12.9093 18.3698 12.7019C18.5288 12.4945 18.6452 12.2576 18.7121 12.005C18.7806 11.7528 18.7984 11.4895 18.7644 11.2303C18.7303 10.9712 18.645 10.7214 18.5137 10.4955C18.3384 10.1932 18.0868 9.94218 17.7842 9.76752C17.4815 9.59286 17.1385 9.50066 16.789 9.50014L16.7893 9.49958Z" fill="white"/>
</g>
<path d="M45.44 12.55V20.515C45.44 20.595 45.47 20.66 45.53 20.71C45.59 20.76 45.67 20.8 45.77 20.83C45.88 20.85 46 20.865 46.13 20.875C46.27 20.885 46.405 20.89 46.535 20.89H46.805V22H41.555V20.89H41.72C41.99 20.89 42.21 20.855 42.38 20.785C42.55 20.715 42.635 20.57 42.635 20.35V13C42.635 12.78 42.55 12.635 42.38 12.565C42.21 12.495 41.99 12.46 41.72 12.46H41.555V11.35H50.18V14.38H48.86L48.74 13.21C48.72 13.03 48.645 12.895 48.515 12.805C48.395 12.705 48.225 12.64 48.005 12.61C47.785 12.57 47.51 12.55 47.18 12.55H45.44ZM45.095 16.165C45.515 16.135 45.93 16.11 46.34 16.09C46.76 16.06 47.175 16.035 47.585 16.015C48.005 15.985 48.425 15.96 48.845 15.94V17.455C48.425 17.425 48.005 17.4 47.585 17.38C47.175 17.35 46.76 17.325 46.34 17.305C45.93 17.275 45.515 17.25 45.095 17.23V16.165ZM56.162 17.14V18.115C55.732 18.185 55.362 18.265 55.052 18.355C54.742 18.445 54.482 18.545 54.272 18.655C54.062 18.755 53.897 18.87 53.777 19C53.667 19.13 53.587 19.275 53.537 19.435C53.487 19.585 53.462 19.75 53.462 19.93C53.462 20.18 53.502 20.38 53.582 20.53C53.662 20.68 53.777 20.795 53.927 20.875C54.077 20.945 54.252 20.98 54.452 20.98C54.682 20.98 54.887 20.925 55.067 20.815C55.257 20.705 55.442 20.54 55.622 20.32C55.802 20.1 55.977 19.82 56.147 19.48L56.237 20.32C56.047 20.74 55.822 21.085 55.562 21.355C55.312 21.625 55.022 21.83 54.692 21.97C54.362 22.1 53.977 22.165 53.537 22.165C52.997 22.165 52.537 22.09 52.157 21.94C51.777 21.78 51.487 21.545 51.287 21.235C51.087 20.915 50.987 20.52 50.987 20.05C50.987 19.62 51.082 19.255 51.272 18.955C51.472 18.645 51.777 18.38 52.187 18.16C52.607 17.93 53.142 17.735 53.792 17.575C54.452 17.415 55.242 17.27 56.162 17.14ZM56.192 22L56.042 20.38L55.922 20.395V16.075C55.922 15.835 55.887 15.64 55.817 15.49C55.747 15.33 55.622 15.215 55.442 15.145C55.272 15.065 55.032 15.025 54.722 15.025C54.272 15.025 53.902 15.09 53.612 15.22C53.322 15.35 53.117 15.495 52.997 15.655C52.917 15.595 52.872 15.525 52.862 15.445C52.862 15.355 52.887 15.27 52.937 15.19C52.997 15.11 53.082 15.045 53.192 14.995C53.312 14.935 53.452 14.905 53.612 14.905V16.615H51.482V14.755C51.632 14.645 51.862 14.52 52.172 14.38C52.482 14.23 52.872 14.1 53.342 13.99C53.812 13.87 54.357 13.81 54.977 13.81C55.517 13.81 56.002 13.86 56.432 13.96C56.872 14.06 57.247 14.215 57.557 14.425C57.867 14.625 58.102 14.89 58.262 15.22C58.432 15.54 58.517 15.925 58.517 16.375V20.44C58.517 20.54 58.547 20.62 58.607 20.68C58.667 20.74 58.752 20.785 58.862 20.815C58.982 20.845 59.127 20.875 59.297 20.905L59.402 20.935V22H56.192ZM60.4745 22V21.01H60.5045C60.6845 21.01 60.8345 20.99 60.9545 20.95C61.0845 20.91 61.1845 20.84 61.2545 20.74C61.3245 20.64 61.3595 20.5 61.3595 20.32V15.595C61.3595 15.485 61.3295 15.405 61.2695 15.355C61.2195 15.295 61.1395 15.245 61.0295 15.205C60.9195 15.165 60.7745 15.125 60.5945 15.085L60.4745 15.055V13.975H63.7445L63.8945 15.775L64.0145 15.805V20.89C64.0145 20.92 64.0495 20.945 64.1195 20.965C64.1995 20.985 64.2945 21 64.4045 21.01C64.5145 21.01 64.6145 21.01 64.7045 21.01H64.7645V22H60.4745ZM70.1645 22H65.8745V21.01H65.9045C66.0045 21.01 66.1095 21.01 66.2195 21.01C66.3395 21 66.4345 20.985 66.5045 20.965C66.5845 20.935 66.6245 20.91 66.6245 20.89V16.36C66.6245 16.13 66.5945 15.945 66.5345 15.805C66.4845 15.655 66.3945 15.54 66.2645 15.46C66.1445 15.38 65.9745 15.34 65.7545 15.34C65.5145 15.34 65.2745 15.41 65.0345 15.55C64.8045 15.68 64.5745 15.88 64.3445 16.15C64.1145 16.41 63.8845 16.74 63.6545 17.14L63.6845 15.91C63.9045 15.49 64.1695 15.125 64.4795 14.815C64.7995 14.495 65.1545 14.25 65.5445 14.08C65.9445 13.9 66.3695 13.81 66.8195 13.81C67.3395 13.81 67.7795 13.905 68.1395 14.095C68.5095 14.275 68.7895 14.55 68.9795 14.92C69.1795 15.29 69.2795 15.745 69.2795 16.285V20.32C69.2795 20.5 69.3145 20.64 69.3845 20.74C69.4545 20.84 69.5495 20.91 69.6695 20.95C69.7995 20.99 69.9495 21.01 70.1195 21.01H70.1645V22ZM70.9674 15.16V14.05H71.0724C71.3224 14.05 71.5374 14.03 71.7174 13.99C71.9074 13.95 72.0474 13.87 72.1374 13.75C72.2374 13.63 72.2874 13.455 72.2874 13.225L73.8624 13.975H77.1024V15.16H70.9674ZM74.8524 19.405C74.8524 19.775 74.8974 20.06 74.9874 20.26C75.0874 20.46 75.2274 20.6 75.4074 20.68C75.5874 20.76 75.8074 20.8 76.0674 20.8C76.2974 20.8 76.5074 20.78 76.6974 20.74C76.8974 20.7 77.0324 20.675 77.1024 20.665V21.91C77.0024 21.95 76.8624 21.99 76.6824 22.03C76.5024 22.07 76.2974 22.1 76.0674 22.12C75.8374 22.15 75.5874 22.165 75.3174 22.165C74.7274 22.165 74.1924 22.09 73.7124 21.94C73.2424 21.78 72.8724 21.51 72.6024 21.13C72.3324 20.74 72.1974 20.205 72.1974 19.525V14.245L72.2874 14.125V11.71H74.8524V19.405ZM83.5771 17.14V18.115C83.1471 18.185 82.7771 18.265 82.4671 18.355C82.1571 18.445 81.8971 18.545 81.6871 18.655C81.4771 18.755 81.3121 18.87 81.1921 19C81.0821 19.13 81.0021 19.275 80.9521 19.435C80.9021 19.585 80.8771 19.75 80.8771 19.93C80.8771 20.18 80.9171 20.38 80.9971 20.53C81.0771 20.68 81.1921 20.795 81.3421 20.875C81.4921 20.945 81.6671 20.98 81.8671 20.98C82.0971 20.98 82.3021 20.925 82.4821 20.815C82.6721 20.705 82.8571 20.54 83.0371 20.32C83.2171 20.1 83.3921 19.82 83.5621 19.48L83.6521 20.32C83.4621 20.74 83.2371 21.085 82.9771 21.355C82.7271 21.625 82.4371 21.83 82.1071 21.97C81.7771 22.1 81.3921 22.165 80.9521 22.165C80.4121 22.165 79.9521 22.09 79.5721 21.94C79.1921 21.78 78.9021 21.545 78.7021 21.235C78.5021 20.915 78.4021 20.52 78.4021 20.05C78.4021 19.62 78.4971 19.255 78.6871 18.955C78.8871 18.645 79.1921 18.38 79.6021 18.16C80.0221 17.93 80.5571 17.735 81.2071 17.575C81.8671 17.415 82.6571 17.27 83.5771 17.14ZM83.6071 22L83.4571 20.38L83.3371 20.395V16.075C83.3371 15.835 83.3021 15.64 83.2321 15.49C83.1621 15.33 83.0371 15.215 82.8571 15.145C82.6871 15.065 82.4471 15.025 82.1371 15.025C81.6871 15.025 81.3171 15.09 81.0271 15.22C80.7371 15.35 80.5321 15.495 80.4121 15.655C80.3321 15.595 80.2871 15.525 80.2771 15.445C80.2771 15.355 80.3021 15.27 80.3521 15.19C80.4121 15.11 80.4971 15.045 80.6071 14.995C80.7271 14.935 80.8671 14.905 81.0271 14.905V16.615H78.8971V14.755C79.0471 14.645 79.2771 14.52 79.5871 14.38C79.8971 14.23 80.2871 14.1 80.7571 13.99C81.2271 13.87 81.7721 13.81 82.3921 13.81C82.9321 13.81 83.4171 13.86 83.8471 13.96C84.2871 14.06 84.6621 14.215 84.9721 14.425C85.2821 14.625 85.5171 14.89 85.6771 15.22C85.8471 15.54 85.9321 15.925 85.9321 16.375V20.44C85.9321 20.54 85.9621 20.62 86.0221 20.68C86.0821 20.74 86.1671 20.785 86.2771 20.815C86.3971 20.845 86.5421 20.875 86.7121 20.905L86.8171 20.935V22H83.6071ZM92.8378 19.99C92.8378 19.8 92.7828 19.645 92.6728 19.525C92.5728 19.395 92.4328 19.29 92.2528 19.21C92.0828 19.13 91.8828 19.065 91.6528 19.015C91.4228 18.955 91.1828 18.895 90.9328 18.835C90.6028 18.755 90.2728 18.665 89.9428 18.565C89.6228 18.455 89.3278 18.315 89.0578 18.145C88.7878 17.965 88.5728 17.73 88.4128 17.44C88.2528 17.15 88.1728 16.78 88.1728 16.33C88.1728 15.76 88.3178 15.285 88.6078 14.905C88.9078 14.525 89.3228 14.245 89.8528 14.065C90.3828 13.875 91.0028 13.78 91.7128 13.78C92.2928 13.78 92.7928 13.815 93.2128 13.885C93.6328 13.955 93.9728 14.04 94.2328 14.14C94.5028 14.23 94.6878 14.305 94.7878 14.365V16.165H92.8828V14.74C93.0428 14.73 93.1628 14.745 93.2428 14.785C93.3228 14.815 93.3728 14.865 93.3928 14.935C93.4228 14.995 93.4328 15.07 93.4228 15.16C93.4228 15.24 93.4128 15.315 93.3928 15.385C93.2628 15.285 93.1178 15.2 92.9578 15.13C92.7978 15.06 92.6128 15.01 92.4028 14.98C92.2028 14.94 91.9728 14.92 91.7128 14.92C91.2828 14.92 90.9628 14.995 90.7528 15.145C90.5428 15.285 90.4378 15.495 90.4378 15.775C90.4378 15.965 90.4878 16.12 90.5878 16.24C90.6878 16.36 90.8278 16.46 91.0078 16.54C91.1878 16.61 91.3978 16.675 91.6378 16.735C91.8778 16.795 92.1328 16.86 92.4028 16.93C92.7328 17.01 93.0678 17.105 93.4078 17.215C93.7478 17.325 94.0578 17.475 94.3378 17.665C94.6178 17.845 94.8378 18.08 94.9978 18.37C95.1678 18.65 95.2528 19 95.2528 19.42C95.2528 20.02 95.1078 20.525 94.8178 20.935C94.5378 21.335 94.1078 21.64 93.5278 21.85C92.9578 22.06 92.2428 22.165 91.3828 22.165C90.8228 22.165 90.3178 22.125 89.8678 22.045C89.4278 21.965 89.0478 21.87 88.7278 21.76C88.4178 21.65 88.1778 21.545 88.0078 21.445V19.51H89.9278V21.385C89.7378 21.315 89.5878 21.235 89.4778 21.145C89.3778 21.045 89.3128 20.945 89.2828 20.845C89.2528 20.745 89.2478 20.66 89.2678 20.59C89.2978 20.52 89.3528 20.485 89.4328 20.485C89.5628 20.585 89.7228 20.675 89.9128 20.755C90.1128 20.835 90.3328 20.9 90.5728 20.95C90.8228 20.99 91.0978 21.01 91.3978 21.01C91.7278 21.01 91.9978 20.975 92.2078 20.905C92.4178 20.835 92.5728 20.725 92.6728 20.575C92.7828 20.425 92.8378 20.23 92.8378 19.99ZM96.1413 15.16V14.05H96.2463C96.4963 14.05 96.7113 14.03 96.8913 13.99C97.0813 13.95 97.2213 13.87 97.3113 13.75C97.4113 13.63 97.4613 13.455 97.4613 13.225L99.0363 13.975H102.276V15.16H96.1413ZM100.026 19.405C100.026 19.775 100.071 20.06 100.161 20.26C100.261 20.46 100.401 20.6 100.581 20.68C100.761 20.76 100.981 20.8 101.241 20.8C101.471 20.8 101.681 20.78 101.871 20.74C102.071 20.7 102.206 20.675 102.276 20.665V21.91C102.176 21.95 102.036 21.99 101.856 22.03C101.676 22.07 101.471 22.1 101.241 22.12C101.011 22.15 100.761 22.165 100.491 22.165C99.9013 22.165 99.3663 22.09 98.8863 21.94C98.4163 21.78 98.0463 21.51 97.7763 21.13C97.5063 20.74 97.3713 20.205 97.3713 19.525V14.245L97.4613 14.125V11.71H100.026V19.405ZM105.63 12.925C105.17 12.925 104.805 12.815 104.535 12.595C104.275 12.375 104.145 12.06 104.145 11.65C104.145 11.23 104.275 10.915 104.535 10.705C104.805 10.485 105.17 10.375 105.63 10.375C106.1 10.375 106.465 10.485 106.725 10.705C106.995 10.915 107.13 11.23 107.13 11.65C107.13 12.06 106.995 12.375 106.725 12.595C106.465 12.815 106.1 12.925 105.63 12.925ZM107.04 13.975V20.335C107.04 20.605 107.115 20.785 107.265 20.875C107.425 20.965 107.635 21.01 107.895 21.01H107.925V22H103.5V21.01H103.53C103.79 21.01 103.995 20.965 104.145 20.875C104.305 20.785 104.385 20.605 104.385 20.335V15.595C104.385 15.435 104.325 15.325 104.205 15.265C104.085 15.205 103.895 15.145 103.635 15.085L103.5 15.055V13.975H107.04ZM119.01 22H114.36V21.01H114.435C114.535 21.01 114.635 21.005 114.735 20.995C114.845 20.985 114.935 20.97 115.005 20.95C115.075 20.93 115.11 20.905 115.11 20.875L113.01 17.935V17.65L115.71 15.205C115.71 15.135 115.645 15.085 115.515 15.055C115.395 15.025 115.25 15 115.08 14.98C114.91 14.96 114.75 14.95 114.6 14.95H114.435V13.975H118.515V14.95H118.365C118.165 14.95 117.98 14.975 117.81 15.025C117.64 15.065 117.48 15.13 117.33 15.22C117.19 15.3 117.045 15.41 116.895 15.55L114.33 17.89L114.9 16.6L117.81 20.485C117.92 20.625 118.03 20.735 118.14 20.815C118.26 20.895 118.385 20.95 118.515 20.98C118.655 21 118.8 21.01 118.95 21.01H119.01V22ZM112.59 10.69V20.89C112.59 20.92 112.63 20.945 112.71 20.965C112.79 20.985 112.88 21 112.98 21.01C113.09 21.01 113.185 21.01 113.265 21.01H113.34V22H109.05V21.01H109.08C109.34 21.01 109.545 20.965 109.695 20.875C109.855 20.775 109.935 20.59 109.935 20.32V12.295C109.935 12.185 109.905 12.105 109.845 12.055C109.795 11.995 109.715 11.945 109.605 11.905C109.495 11.865 109.355 11.83 109.185 11.8L109.05 11.77V10.69H112.59ZM125.167 17.14V18.115C124.737 18.185 124.367 18.265 124.057 18.355C123.747 18.445 123.487 18.545 123.277 18.655C123.067 18.755 122.902 18.87 122.782 19C122.672 19.13 122.592 19.275 122.542 19.435C122.492 19.585 122.467 19.75 122.467 19.93C122.467 20.18 122.507 20.38 122.587 20.53C122.667 20.68 122.782 20.795 122.932 20.875C123.082 20.945 123.257 20.98 123.457 20.98C123.687 20.98 123.892 20.925 124.072 20.815C124.262 20.705 124.447 20.54 124.627 20.32C124.807 20.1 124.982 19.82 125.152 19.48L125.242 20.32C125.052 20.74 124.827 21.085 124.567 21.355C124.317 21.625 124.027 21.83 123.697 21.97C123.367 22.1 122.982 22.165 122.542 22.165C122.002 22.165 121.542 22.09 121.162 21.94C120.782 21.78 120.492 21.545 120.292 21.235C120.092 20.915 119.992 20.52 119.992 20.05C119.992 19.62 120.087 19.255 120.277 18.955C120.477 18.645 120.782 18.38 121.192 18.16C121.612 17.93 122.147 17.735 122.797 17.575C123.457 17.415 124.247 17.27 125.167 17.14ZM125.197 22L125.047 20.38L124.927 20.395V16.075C124.927 15.835 124.892 15.64 124.822 15.49C124.752 15.33 124.627 15.215 124.447 15.145C124.277 15.065 124.037 15.025 123.727 15.025C123.277 15.025 122.907 15.09 122.617 15.22C122.327 15.35 122.122 15.495 122.002 15.655C121.922 15.595 121.877 15.525 121.867 15.445C121.867 15.355 121.892 15.27 121.942 15.19C122.002 15.11 122.087 15.045 122.197 14.995C122.317 14.935 122.457 14.905 122.617 14.905V16.615H120.487V14.755C120.637 14.645 120.867 14.52 121.177 14.38C121.487 14.23 121.877 14.1 122.347 13.99C122.817 13.87 123.362 13.81 123.982 13.81C124.522 13.81 125.007 13.86 125.437 13.96C125.877 14.06 126.252 14.215 126.562 14.425C126.872 14.625 127.107 14.89 127.267 15.22C127.437 15.54 127.522 15.925 127.522 16.375V20.44C127.522 20.54 127.552 20.62 127.612 20.68C127.672 20.74 127.757 20.785 127.867 20.815C127.987 20.845 128.132 20.875 128.302 20.905L128.407 20.935V22H125.197Z" fill="white"/>
<defs>
<clipPath id="clip0_2_167">
<rect width="35.02" height="35.02" fill="white"/>
</clipPath>
</defs>
</svg>
