<svg width="27" height="27" viewBox="0 0 27 27" fill="none" xmlns="http://www.w3.org/2000/svg">
<g clip-path="url(#clip0_1_12)">
<path d="M22.342 3.81799C20.1074 1.58712 17.1386 0.243874 13.9877 0.0381098C10.8369 -0.167654 7.71859 0.778075 5.21285 2.69938C2.70711 4.62068 0.984558 7.38674 0.365607 10.483C-0.253344 13.5793 0.273451 16.795 1.848 19.532L0 26.278L6.9 24.466C8.81015 25.5074 10.9514 26.0521 13.127 26.05H13.133C16.5981 26.0496 19.9229 24.6813 22.3845 22.2426C24.8461 19.8038 26.2453 16.4919 26.278 13.027C26.2594 11.3086 25.9022 9.61081 25.2268 8.03064C24.5514 6.45047 23.5711 5.01895 22.342 3.81799ZM13.133 23.855C11.1932 23.8576 9.28849 23.3377 7.619 22.35L7.226 22.115L3.132 23.187L4.223 19.193L3.965 18.782C3.09943 17.3561 2.57447 15.7498 2.43095 14.0879C2.28744 12.426 2.52923 10.7535 3.13753 9.20031C3.74583 7.64715 4.70424 6.25524 5.9382 5.13288C7.17215 4.01051 8.6484 3.18794 10.2521 2.72914C11.8558 2.27035 13.5437 2.1877 15.1846 2.48763C16.8254 2.78756 18.375 3.46198 19.7127 4.45843C21.0504 5.45488 22.1402 6.7465 22.8973 8.23281C23.6544 9.71912 24.0585 11.3601 24.078 13.028C24.0472 15.9104 22.8804 18.6642 20.8311 20.6914C18.7819 22.7186 16.0155 23.8554 13.133 23.855ZM19.069 15.75C18.746 15.586 17.145 14.8 16.846 14.694C16.547 14.588 16.33 14.53 16.113 14.858C15.896 15.186 15.274 15.914 15.081 16.137C14.888 16.36 14.7 16.383 14.381 16.219C12.5056 15.4722 10.9416 14.1071 9.948 12.35C9.614 11.775 10.282 11.816 10.904 10.573C10.9467 10.4832 10.9664 10.3841 10.9613 10.2848C10.9563 10.1855 10.9266 10.089 10.875 10.004C10.793 9.83999 10.142 8.23799 9.875 7.58699C9.611 6.95399 9.341 7.04199 9.142 7.02999C8.943 7.01799 8.742 7.01799 8.52 7.01799C8.35569 7.02194 8.19392 7.05946 8.04465 7.12825C7.89538 7.19704 7.76175 7.29564 7.652 7.41799C7.28438 7.76706 6.99337 8.18878 6.79745 8.65635C6.60154 9.12391 6.50502 9.62712 6.514 10.134C6.62144 11.3609 7.082 12.5303 7.84 13.501C9.23671 15.5934 11.1525 17.2876 13.4 18.418C15.465 19.31 16.274 19.386 17.306 19.233C17.7591 19.1412 18.1881 18.9562 18.5658 18.6897C18.9435 18.4232 19.2616 18.0811 19.5 17.685C19.7125 17.1981 19.7779 16.6596 19.688 16.136C19.609 15.99 19.392 15.907 19.069 15.75Z" fill="white"/>
</g>
<defs>
<clipPath id="clip0_1_12">
<rect width="26.278" height="26.278" fill="white"/>
</clipPath>
</defs>
</svg>
