<svg width="34" height="24" viewBox="0 0 34 24" fill="none" xmlns="http://www.w3.org/2000/svg">
<g clip-path="url(#clip0_1_10)">
<path d="M32.996 3.70778C32.8059 2.99039 32.4306 2.33558 31.9077 1.80894C31.3849 1.28231 30.7329 0.902357 30.017 0.707149C27.388 -2.38469e-07 16.85 0 16.85 0C16.85 0 6.312 1.19234e-07 3.684 0.70915C2.96816 0.90445 2.31619 1.28443 1.79337 1.81105C1.27054 2.33767 0.895228 2.99244 0.705003 3.70978C0.220642 6.40431 -0.0136883 9.13784 0.00500302 11.8755C-0.0136883 14.6132 0.220642 17.3467 0.705003 20.0412C0.896798 20.7525 1.27347 21.4003 1.79671 21.9187C2.31996 22.4371 2.97112 22.8077 3.684 22.9929C6.312 23.705 16.85 23.705 16.85 23.705C16.85 23.705 27.388 23.705 30.016 22.9959C30.7289 22.8107 31.38 22.4401 31.9033 21.9217C32.4265 21.4033 32.8032 20.7555 32.995 20.0442C33.4794 17.3497 33.7137 14.6162 33.695 11.8785C33.7137 9.14084 33.4794 6.40731 32.995 3.71278L32.996 3.70778ZM13.403 16.8856V6.86245L22.211 11.8745L13.403 16.8856Z" fill="white"/>
</g>
<defs>
<clipPath id="clip0_1_10">
<rect width="33.7" height="23.7" fill="white"/>
</clipPath>
</defs>
</svg>
